<?xml version="1.0" encoding="utf-8"?>
<?xml-stylesheet type="text/xsl" href="rss1.xsl"?>
<rss version="2.0" xmlns:atom="http://www.w3.org/2005/Atom" xmlns:content="http://purl.org/rss/1.0/modules/content/" xmlns:dc="http://purl.org/dc/elements/1.1/" xmlns:media="http://search.yahoo.com/mrss/">
<channel>
 <title>Getty</title>
 <link>http://www.gettyimg.com/</link>
 <atom:link href="http://www.gettyimg.com/" rel="self" type="application/rss+xml" />

 
                <item>
                <title><![CDATA[【Apple Music】WEB-RiP - Elyanna - GANENI 'Apple.Music.Web.1080-fstambuk']]></title>
                <link><![CDATA[https://sharemania.us/threads/elyanna-ganeni-apple-music-web-1080-fstambuk.242869/]]></link>
                <description><![CDATA[<article>
<blockquote class="messageText SelectQuoteContainer ugc baseHtml">
<div style="text-align: center"><img src="https://i.ibb.co/S0k2NSk/Elyanna-GANENI-Apple-Music-Web-1080-fstambuk-VTM.gif" class="bbCodeImage LbImage" alt="[​IMG]" data-url="https://i.ibb.co/S0k2NSk/Elyanna-GANENI-Apple-Music-Web-1080-fstambuk-VTM.gif" style=""><br>
​</div>
<div class="ToggleTriggerAnchor bbCodeSpoilerContainer">
<button type="button" class="button bbCodeSpoilerButton ToggleTrigger Tooltip JsOnly" data-target="> .SpoilerTarget"><span>Spoiler: <span class="SpoilerTitle">Apple Music</span></span></button>
<div class="SpoilerTarget bbCodeSpoilerText">
<div class="bbCodeBlock bbCodeCode">
<div class="type">Code:</div>
<pre>General
Complete name                            : Elyanna - GANENI 'Apple.Music.Web.1080-fstambuk'.m4v
Format                                   : MPEG-4
Codec ID                                 : M4V  (M4V /isom/iso2/avc1)
File size                                : 248 MiB
Duration                                 : 3 min 20 s
Overall bit rate                         : 10.4 Mb/s
Frame rate                               : 25.000 FPS
Movie name                               : GANENI
Performer                                : Elyanna
Genre                                    : Músicas del mundo
ContentType                              : Music Video
Recorded date                            : 2024-04-12 07:00:00 UTC
Copyright                                : ℗ 2024 SALXCO UAM LLC
Cover                                    : Yes
Rating                                   : None
GenreID                                  : 1619
AlbumTitleID                             : 1486460923
AppleStoreCatalogID                      : 1739038991

Video
ID                                       : 1
Format                                   : AVC
Format/Info                              : Advanced Video Codec
Format profile                           : High@L4
Format settings                          : CABAC / 4 Ref Frames
Format settings, CABAC                   : Yes
Format settings, Reference frames        : 4 frames
Format settings, Slice count             : 8 slices per frame
Codec ID                                 : avc1
Codec ID/Info                            : Advanced Video Coding
Duration                                 : 3 min 20 s
Bit rate                                 : 10.1 Mb/s
Width                                    : 1 920 pixels
Height                                   : 1 080 pixels
Display aspect ratio                     : 16:9
Frame rate mode                          : Constant
Frame rate                               : 25.000 FPS
Color space                              : YUV
Chroma subsampling                       : 4:2:0
Bit depth                                : 8 bits
Scan type                                : Progressive
Bits/(Pixel*Frame)                       : 0.195
Stream size                              : 242 MiB (97%)
Title                                    : Core Media Video
Color range                              : Limited
Color primaries                          : BT.709
Transfer characteristics                 : BT.709
Matrix coefficients                      : BT.709
Codec configuration box                  : avcC

Audio
ID                                       : 2
Format                                   : AAC LC
Format/Info                              : Advanced Audio Codec Low Complexity
Codec ID                                 : 2 / 40 / mp4a-40-2
Duration                                 : 3 min 20 s
Bit rate mode                            : Constant
Bit rate                                 : 249 kb/s
Channel(s)                               : 2 channels
Channel layout                           : L R
Sampling rate                            : 48.0 kHz
Frame rate                               : 46.875 FPS (1024 SPF)
Compression mode                         : Lossy
Stream size                              : 5.95 MiB (2%)
Title                                    : Core Media Audio
Default                                  : Yes
Alternate group                          : 1

</pre>
</div><div style="text-align: center">​</div></div>
</div><div style="text-align: center"><br>
<div class="bbCodeBlock bbCodeVfcHH HiddenContent">
<div class="attribution type">Hidden Content:</div>
<blockquote>You must reply before you can see the hidden data contained here.</blockquote>
</div></div>
<div class="messageTextEndMarker">&nbsp;</div>
</blockquote>
</article>]]></description>
                <author><![CDATA[fstambuk]]></author>
                </item>

                
                <item>
                <title><![CDATA[【Albums (lossless)】FLAC - Taylor Swift - reputation [MoraJP Hires 24bit/48kHz]]]></title>
                <link><![CDATA[https://sharemania.us/threads/taylor-swift-reputation-morajp-hires-24bit-48khz.242868/]]></link>
                <description><![CDATA[<article>
<blockquote class="messageText SelectQuoteContainer ugc baseHtml">
<img src="https://a5.mzstatic.com/us/r1000/0/Music125/v4/ba/16/42/ba1642a8-0c75-a83d-3b9c-8c2eba140dc5/00843930033133.rgb.jpg" class="bbCodeImage LbImage" alt="[​IMG]" data-url="https://a5.mzstatic.com/us/r1000/0/Music125/v4/ba/16/42/ba1642a8-0c75-a83d-3b9c-8c2eba140dc5/00843930033133.rgb.jpg" style=""> <br>
<b>Title:</b> reputation<br>
<b>Artist:</b> Taylor Swift<br>
<b>Release Date:</b> 10 November 2017<br>
<b>Label:</b> Big Machine Records, LLC<br>
<b>Genre:</b> Pop<br>
<b>Total Time:</b> 55:38<br>
<b>Total Size:</b> 862.5 MB<br>
<b>Source:</b> <a href="https://mora.jp/package/43000006/00843930048700/?trackMaterialNo=14931975" target="_blank" class="externalLink" rel="nofollow">MoraJP</a><br>
<b>Tracklist:</b><br>
01 ...Ready For It?<br>
02 End Game<br>
03 I Did Something Bad<br>
04 Don’t Blame Me<br>
05 Delicate<br>
06 Look What You Made Me Do<br>
07 So It Goes...<br>
08 Gorgeous<br>
09 Getaway Car<br>
10 King Of My Heart<br>
11 Dancing With Our Hands Tied<br>
12 Dress<br>
13 This Is Why We Can’t Have Nice Things<br>
14 Call It What You Want<br>
15 New Year’s Day<br>
<b><br>
Download Link:</b><br>
<div style="text-align: center">
<div class="bbCodeBlock bbCodeVfcHH HiddenContent">
<div class="attribution type">Hidden Content:</div>
<blockquote>You must reply before you can see the hidden data contained here.</blockquote>
</div></div>
<div class="messageTextEndMarker">&nbsp;</div>
</blockquote>
</article>]]></description>
                <author><![CDATA[abdci]]></author>
                </item>

                </channel></rss>